

Release info:

General
Format : AVI
Format/Info : Audio Video Interleave
File size : 700 MiB
Duration : 2h 25mn
Overall bit rate : 674 Kbps


Video
ID : 0
Format : MPEG-4 Visual
Format profile : Advanced Simple@L5
Format settings, BVOP : 2
Format settings, QPel : No
Format settings, GMC : No warppoints
Format settings, Matrix : Default (MPEG)
Codec ID : XVID
Codec ID/Hint : XviD
Duration : 2h 25mn
Bit rate : 569 Kbps
Width : 572 pixels
Height : 236 pixels
Display aspect ratio : 2.40:1
Frame rate : 25.000 fps
Color space : YUV
Chroma subsampling : 4:2:0
Bit depth : 8 bits
Scan type : Progressive
Compression mode : Lossy
Bits/(Pixel*Frame) : 0.169
Stream size : 590 MiB (84%)

Audio
ID : 1
Format : MPEG Audio
Format version : Version 1
Format profile : Layer 3
Mode : Joint stereo
Mode extension : MS Stereo
Codec ID : 55
Codec ID/Hint : MP3
Duration : 2h 25mn
Bit rate mode : Constant
Bit rate : 96.0 Kbps
Channel(s) : 2 channels
Sampling rate : 48.0 KHz
Compression mode : Lossy
Delay relative to video : 48ms
Stream size : 99.6 MiB (14%)
Alignment : Split accross interleaves
Interleave, duration : 40 ms (1.00 video frame)
Writing library : LAME3.97 (beta)


IMDB Info:

After discovering that an asteroid the size of Texas is going to impact Earth in less than a month, NASA recruits a misfit team of deep core drillers to save humanity.
Director: Michael Bay
Writers: Jonathan Hensleigh (screenplay), J.J. Abrams (screenplay),
Stars: Bruce Willis, Billy Bob Thornton and Ben Affleck

Genres: Action | Adventure | Sci-Fi | Thriller
 
http://www.imdb.com/title/tt0120591/

Screen Shot:
 
http://www.shotpix.com/images/55390946823348592478.png 
http://www.shotpix.com/images/00855817944475388611.png 
http://www.shotpix.com/images/46058450679902616322.png 
http://www.shotpix.com/images/78283935012309921324.png 
http://www.shotpix.com/images/95573840368019440898.png 
http://www.shotpix.com/images/73472731589100444208.png 
http://www.shotpix.com/images/40746692871673842806.png 
http://www.shotpix.com/images/85284945634580243204.png 
http://www.shotpix.com/images/05938931762715364849.png 
http://www.shotpix.com/images/86853483829145126198.png